<?xml version="1.0" encoding="utf-8"?>
<svg width="800px" height="800px" viewBox="0 0 24 24" fill="none" xmlns="http://www.w3.org/2000/svg">
  <path d="M 7 11.103 C 5.343 11.103 4 9.759 4 8.103 C 4 6.446 5.343 5.103 7 5.103 C 8.657 5.103 10 6.446 10 8.103 C 10 9.759 8.657 11.103 7 11.103 Z" fill="#000000"/>
  <path fill-rule="evenodd" clip-rule="evenodd" d="M 24 8.103 C 24 4.237 20.866 1.103 17 1.103 L 7 1.103 C 3.134 1.103 0 4.237 0 8.103 C 0 11.969 3.134 15.103 7 15.103 L 17 15.103 C 20.866 15.103 24 11.969 24 8.103 Z M 17 3.103 L 7 3.103 C 4.239 3.103 2 5.341 2 8.103 C 2 10.864 4.239 13.103 7 13.103 L 17 13.103 C 19.761 13.103 22 10.864 22 8.103 C 22 5.341 19.761 3.103 17 3.103 Z" fill="#000000"/>
  <text style="fill: rgb(0, 0, 0); font-family: &quot;Arial&quot;, sans-serif; font-size: 5px; white-space: pre;"><tspan x="1" y="20.533">VPN </tspan><tspan style="fill: rgb(244, 11, 11);">OFF</tspan></text>
  <text style="white-space: pre; fill: rgb(51, 51, 51); font-family: &quot;Arial&quot;, sans-serif; font-size: 28px;" x="369.749" y="-1.768">Geben Sie hier Ihren Text ein</text>
  <text style="white-space: pre; fill: rgb(51, 51, 51); font-family: &quot;Arial&quot;, sans-serif; font-size: 28px;" x="35.136" y="7.113">Geben Sie hier Ihren Text ein</text>
  <text style="white-space: pre; fill: rgb(51, 51, 51); font-family: &quot;Arial&quot;, sans-serif; font-size: 28px;" x="17.832" y="8.727"> </text>
</svg>